<svg xmlns="http://www.w3.org/2000/svg" viewBox="0 0 64 64" id="book-shopping">
  <path fill="#4aa5ff" d="M52.73997,45.5H15.30153V20.5l43.26475-2.82161c1.35246-.0882,2.39916,1.16597,2.07044,2.48083l-5.95646,23.82585c-.22258,.89033-1.02255,1.51493-1.94029,1.51493Z"></path>
  <path fill="#21257c" d="M52.7398,46.5H15.30132c-.55225,0-1-.44727-1-1V20.5c0-.52734,.40918-.96387,.93506-.99805l43.26514-2.82129c1.95517-.17752,3.64557,1.81744,3.10541,3.72075,.00006-.00004-5.95648,23.82613-5.95648,23.82613-.33496,1.33789-1.53174,2.27246-2.91064,2.27246Zm-36.43848-2H52.7398c.45947,0,.85889-.31152,.97021-.75781l5.95654-23.8252c.07861-.31348,.00439-.63574-.20264-.88379-.20654-.24805-.50879-.38477-.83203-.35645l-42.33057,2.75977v23.06348Z"></path>
  <path fill="#e6f3ff" d="M47.99957,34.5c-1.14451,1.33883-1.50948,4.20817,0,6H27.29955c-1.64996,0-3-1.34003-3-3,.00087-1.65891,1.34887-2.9959,3-3h20.70001Z"></path>
  <path fill="#21257c" d="M47.99957,41.5H27.29937c-5.28307-.16981-5.28902-7.82571,.00009-8-.00009,0,20.7001,0,20.7001,0,.37891,0,.7251,.21387,.89453,.55273s.13281,.74512-.09473,1.04785c-.28809,.38379-.94385,1.4248-.80469,2.79883,.09131,.9043,.48438,1.58301,.79834,1.99219,.50848,.621,.01138,1.63546-.79346,1.6084Zm-20.7002-6c-2.63345,.07277-2.64049,3.92802,.00006,4-.00006,0,19.02435,0,19.02435,0-.4838-1.17128-.42133-2.96759,.01514-4H27.29937Z"></path>
  <path fill="#4aa5ff" d="M27.29955,4.5c-1.64996,0-3,1.33997-3,3v30c.00089-1.6589,1.34886-2.99591,3-3h3.00201s0-30,0-30h-3.00201Z"></path>
  <path fill="#21257c" d="M24.29937,38.5c-.55225,0-1-.44727-1-1V7.5c0-2.20605,1.79443-4,4-4h3.00195c.55225,0,1,.44727,1,1v30c0,.55273-.44775,1-1,1h-3.00195c-.52441,0-1.03955,.21387-1.4126,.58691-.37891,.37891-.5874,.88086-.5874,1.41309,0,.55273-.44775,1-1,1ZM27.29937,5.5c-1.10303,0-2,.89746-2,2v26.54004c1.04679-.7112,2.80192-.52092,4.00195-.54004V5.5h-2.00195Z"></path>
  <path fill="#e6f3ff" d="M50.29955,7.5c0-1.66003-1.33997-3-3-3H30.30157v30h19.99799V7.5Z"></path>
  <path fill="#21257c" d="M50.29937 35.5H30.30132c-.55225 0-1-.44727-1-1V4.5c0-.55273.44775-1 1-1h16.99805c2.20557 0 4 1.79395 4 4v27c0 .55273-.44775 1-1 1zm-18.99805-2h17.99805V7.5c0-1.10254-.89697-2-2-2h-15.99805v28zM15.30132 21.5c-.55225 0-1-.44727-1-1v-3c0-1.6543-1.3457-3-3-3h-2c-.55225 0-1-.44727-1-1s.44775-1 1-1h2c2.75684 0 5 2.24316 5 5v3c0 .55273-.44775 1-1 1z"></path>
  <path fill="#4aa5ff" d="M9.30153,13.5c-.10031,3.95666-5.90026,3.95587-6-.00009,.10031-3.95657,5.90026-3.95578,6,.00009Z"></path>
  <path fill="#21257c" d="M6.30132 17.5c-5.28627-.16775-5.28504-7.83304.00009-8 5.28618.16775 5.28495 7.83304-.00009 8zm0-6c-2.63721.0692-2.63669 3.93119.00006 4 2.63714-.0692 2.63662-3.93119-.00006-4zM56.30132 52.5H18.30132c-5.27611-.16336-5.29399-7.83057.00009-8-.00009 0 33.99991 0 33.99991 0 1.30553.01957 1.3217 1.97714-.00005 2 .00005 0-33.99995 0-33.99995 0-2.62628.06501-2.64599 3.92928.00007 4-.00007 0 37.99993 0 37.99993 0 1.2992.01605 1.32633 1.97784 0 2z"></path>
  <path fill="#4aa5ff" d="M28.30153,55.5c-.16322,5.28724-7.83756,5.28601-8-.00009,.16322-5.28715,7.83757-5.28593,8,.00009Z"></path>
  <path fill="#21257c" d="M24.30132,60.5c-2.75684,0-5-2.24316-5-5,.235-6.61748,9.766-6.61579,10.00001,.00008,0,2.75675-2.24317,4.99992-5.00001,4.99992Zm0-8c-3.95588,.10369-3.95508,5.89689,.00009,6,3.95579-.10369,3.95499-5.89689-.00009-6Z"></path>
  <path fill="#4aa5ff" d="M53.30153,55.5c-.16322,5.28724-7.83756,5.28601-8-.00009,.16322-5.28715,7.83757-5.28593,8,.00009Z"></path>
  <path fill="#21257c" d="M49.30132 60.5c-2.75684 0-5-2.24316-5-5 .235-6.61748 9.766-6.61579 10.00001.00008 0 2.75675-2.24317 4.99992-5.00001 4.99992zm0-8c-3.95588.10369-3.95508 5.89689.00009 6 3.95579-.10369 3.95499-5.89689-.00009-6zM11.30132 25.5H3.30132c-1.31205-.02124-1.31628-1.97793.00004-2-.00004 0 7.99996 0 7.99996 0 1.31205.02124 1.31628 1.97793 0 2zM11.30132 31.5H6.30132c-1.31298-.02153-1.31551-1.97802.00004-2-.00004 0 4.99996 0 4.99996 0 1.31298.02153 1.31551 1.97802 0 2zM11.30132 37.5H4.30132c-1.31237-.02134-1.31602-1.97796.00004-2-.00004 0 6.99996 0 6.99996 0 1.31237.02134 1.31602 1.97796 0 2zM49.99957 41.5h-2c-1.31388-.02182-1.31477-1.97812.00004-2-.00004 0 1.99996 0 1.99996 0 1.31388.02182 1.31477 1.97812 0 2z"></path>
</svg>
